# xmcd
#
# Track frame offsets:
# 150
# 12452
# 24765
# 37458
# 56073
# 69175
# 81501
# 94918
# 107974
# 121502
# 135960
# 152596
# 165188
# 177700
#
# Disc length: 2612 seconds
#
#
# Revision: 0
# Processed by: cddbd v1.5.2PL0 Copyright (c) Steve Scherf et al.
# Submitted via: FreeRIP 2.951 
#
DISCID=b00a320e
DTITLE=Varios - Modas de Viola
DYEAR=1900
DGENRE=Folklore
TTITLE0=Leo Canhoto e Robertinho - O Ultimo Julgamento
TTITLE1=Iridio e Irineu - O Menino e a Rosa
TTITLE2=Sergio Reis - Filho Adotivo
TTITLE3=Tibagi e Mitrinho - Canarinho do Peito Amarelo
TTITLE4=Pedro Bento e Zé da Estada - Amanheci em Teus Braços
TTITLE5=Tonico e Tinoco - Cabocla Tereza
TTITLE6=Jacó e Jacozinho - Disco Voador
TTITLE7=Belmonte e Amarai - Boa Noite, Amor
TTITLE8=Dino Franco e Moraí - Manto Estrelado
TTITLE9=Abel e Caim - Mãe Amorosa
TTITLE10=Tião Carreiro e Pardinho - Negrinho do Pastoreio
TTITLE11=Lourenço e Lourival - Lenda da Valsa dos Noivos
TTITLE12=Cascatinha e Inhana - India
TTITLE13=Cacique e Pagé  Peito Sadio
EXTD=
EXTT0=
EXTT1=
EXTT2=
EXTT3=
EXTT4=
EXTT5=
EXTT6=
EXTT7=
EXTT8=
EXTT9=
EXTT10=
EXTT11=
EXTT12=
EXTT13=
PLAYORDER=
